<svg width="34" height="34" viewBox="0 0 34 34" fill="none" xmlns="http://www.w3.org/2000/svg">
<g clip-path="url(#clip0_717_19808)">
<path d="M11.9333 0.733513C10.7556 0.733513 9.66667 1.0224 8.66667 1.60018C7.66667 2.17796 6.87778 2.96685 6.3 3.96685C5.72222 4.96685 5.43333 6.05574 5.43333 7.23351V7.86685C5.43333 8.11129 5.52778 8.2724 5.71667 8.35018C5.90556 8.42796 6.09444 8.41129 6.28333 8.30018C6.47222 8.18907 6.55556 8.0224 6.53333 7.80018C6.51111 7.66685 6.5 7.47796 6.5 7.23351C6.5 6.25574 6.74444 5.35018 7.23333 4.51685C7.72222 3.68351 8.38333 3.0224 9.21667 2.53351C10.05 2.04463 10.9556 1.80018 11.9333 1.80018C12.9111 1.80018 13.8167 2.04463 14.65 2.53351C15.4833 3.0224 16.1444 3.68351 16.6333 4.51685C17.1222 5.35018 17.3667 6.25574 17.3667 7.23351C17.3667 7.85574 17.2778 8.57796 17.1 9.40018C17.0333 9.40018 16.9333 9.41129 16.8 9.43351L16.7333 9.46685C16.6222 9.13351 16.4222 8.85574 16.1333 8.63351C15.8444 8.41129 15.5222 8.30018 15.1667 8.30018C14.7222 8.30018 14.3444 8.14462 14.0333 7.83351C13.7222 7.5224 13.5667 7.14462 13.5667 6.70018C13.5667 6.54462 13.5111 6.41129 13.4 6.30018C13.2889 6.18907 13.1556 6.13351 13 6.13351C12.8444 6.13351 12.7167 6.18907 12.6167 6.30018C12.5167 6.41129 12.4667 6.54462 12.4667 6.70018C12.4667 7.14462 12.3111 7.5224 12 7.83351C11.6889 8.14462 11.3 8.30018 10.8333 8.30018H8.66667C8.31111 8.30018 7.99444 8.41129 7.71667 8.63351C7.43889 8.85574 7.24444 9.13351 7.13333 9.46685C6.82222 9.37796 6.49444 9.37796 6.15 9.46685C5.80556 9.55574 5.51111 9.73907 5.26667 10.0168C5.02222 10.2946 4.88889 10.6335 4.86667 11.0335C4.86667 11.7891 5.10556 12.4113 5.58333 12.9002C6.06111 13.3891 6.64444 13.6668 7.33333 13.7335C7.6 14.5113 8.04444 15.178 8.66667 15.7335V17.0002C8.53333 17.0002 8.41111 17.0557 8.3 17.1668L7.2 18.2335C7.04444 18.4335 7 18.6224 7.06667 18.8002L10.5667 30.1002L6.56667 25.0002L7.03333 23.1002C7.07778 22.878 7.03333 22.7002 6.9 22.5668L5.46667 21.1668L6 18.9335C6.04444 18.7557 6.01111 18.6002 5.9 18.4668C5.78889 18.3335 5.64444 18.2668 5.46667 18.2668C5.4 18.2668 5.35556 18.278 5.33333 18.3002C4.31111 18.5446 3.39444 19.0002 2.58333 19.6668C1.77222 20.3335 1.13889 21.1391 0.683333 22.0835C0.227778 23.028 0 24.0446 0 25.1335V32.7335C0 32.8891 0.05 33.0168 0.15 33.1168C0.25 33.2168 0.377778 33.2668 0.533333 33.2668H20.6C20.8222 33.2668 20.9833 33.178 21.0833 33.0002C21.1833 32.8224 21.1833 32.6446 21.0833 32.4668C20.9833 32.2891 20.8222 32.2002 20.6 32.2002H13.0333L18.3333 25.4668C18.4444 25.3335 18.4778 25.178 18.4333 25.0002L17.9667 23.1335L19.3667 21.7335C19.5 21.6002 19.5444 21.4335 19.5 21.2335L19.2 19.6668C20.1333 20.0668 20.9222 20.6891 21.5667 21.5335C21.7 21.7113 21.8667 21.778 22.0667 21.7335C22.2667 21.6891 22.4111 21.578 22.5 21.4002C22.5889 21.2224 22.5667 21.0446 22.4333 20.8668C21.4556 19.578 20.1889 18.7335 18.6333 18.3335C18.4333 18.2891 18.2611 18.3391 18.1167 18.4835C17.9722 18.628 17.9222 18.7891 17.9667 18.9668L18.4 21.1668L16.9667 22.5668C16.8111 22.7446 16.7667 22.9224 16.8333 23.1002L17.3 25.0002L13.3 30.1002L16.8 18.8002C16.8444 18.578 16.8 18.3891 16.6667 18.2335L15.5667 17.1668C15.4556 17.0557 15.3222 17.0002 15.1667 17.0002V15.7335C15.8111 15.178 16.2667 14.5113 16.5333 13.7335C17.2222 13.6891 17.8 13.4168 18.2667 12.9168C18.7333 12.4168 18.9667 11.7891 18.9667 11.0335C18.9667 10.7224 18.8889 10.4446 18.7333 10.2002C18.5778 9.95574 18.3778 9.76685 18.1333 9.63351C18.3333 8.83351 18.4333 8.03351 18.4333 7.23351C18.4333 6.05574 18.1444 4.96685 17.5667 3.96685C16.9889 2.96685 16.2 2.17796 15.2 1.60018C14.2 1.0224 13.1111 0.733513 11.9333 0.733513ZM13 8.33351C13.2667 8.66685 13.5889 8.92796 13.9667 9.11685C14.3444 9.30574 14.7444 9.40018 15.1667 9.40018C15.3222 9.40018 15.4556 9.45018 15.5667 9.55018C15.6778 9.65018 15.7333 9.77796 15.7333 9.93351V12.1002C15.7333 12.7891 15.5611 13.428 15.2167 14.0168C14.8722 14.6057 14.4111 15.0668 13.8333 15.4002C13.2556 15.7335 12.6167 15.9002 11.9167 15.9002C11.2167 15.9002 10.5778 15.7335 10 15.4002C9.42222 15.0668 8.96667 14.6113 8.63333 14.0335C8.3 13.4557 8.13333 12.8113 8.13333 12.1002V9.93351C8.13333 9.77796 8.18333 9.65018 8.28333 9.55018C8.38333 9.45018 8.51111 9.40018 8.66667 9.40018H10.8333C11.2778 9.40018 11.6889 9.30574 12.0667 9.11685C12.4444 8.92796 12.7556 8.66685 13 8.33351ZM7.03333 10.6668V12.1002L7.06667 12.5668C6.73333 12.478 6.46667 12.3002 6.26667 12.0335C6.06667 11.7668 5.96667 11.4335 5.96667 11.0335C5.96667 10.8557 6.03889 10.7168 6.18333 10.6168C6.32778 10.5168 6.48889 10.4724 6.66667 10.4835C6.84444 10.4946 6.96667 10.5557 7.03333 10.6668ZM17.9 11.0335C17.9 11.4113 17.7944 11.7391 17.5833 12.0168C17.3722 12.2946 17.1111 12.478 16.8 12.5668V10.6668C16.8889 10.5557 17.0222 10.4946 17.2 10.4835C17.3778 10.4724 17.5389 10.5168 17.6833 10.6168C17.8278 10.7168 17.9 10.8557 17.9 11.0335ZM14.1 16.5002V17.7335L11.9333 19.5335L9.76667 17.7335V16.5002C10.4778 16.8335 11.1944 17.0002 11.9167 17.0002C12.6389 17.0002 13.3667 16.8335 14.1 16.5002ZM8.7 18.2668L11.0333 20.2335L9.06667 21.6335L8.2 18.7668L8.7 18.2668ZM15.1333 18.2668L15.6667 18.7668L14.7667 21.6335L12.8 20.2335L15.1333 18.2668ZM4.7 19.6335L4.33333 21.2002C4.28889 21.4002 4.34444 21.578 4.5 21.7335L5.9 23.1335L5.43333 25.0002C5.38889 25.178 5.42222 25.3335 5.53333 25.4668L10.8 32.2002H4.86667V28.4002C4.88889 28.2446 4.84444 28.1113 4.73333 28.0002C4.62222 27.8891 4.48889 27.8335 4.33333 27.8335C4.17778 27.8335 4.05 27.8891 3.95 28.0002C3.85 28.1113 3.8 28.2446 3.8 28.4002V32.2002H1.06667V25.1335C1.06667 23.9335 1.40556 22.8391 2.08333 21.8502C2.76111 20.8613 3.63333 20.1224 4.7 19.6335ZM29.0333 23.9668L27.1667 28.1668C27.1444 28.2113 27.1333 28.2891 27.1333 28.4002L27.1667 28.8002C27.2111 29.1335 27.3 29.4446 27.4333 29.7335C27.9444 30.6446 28.7444 31.1002 29.8333 31.1002C30.4333 31.1002 30.9556 30.9557 31.4 30.6668C31.7333 30.4446 32 30.1335 32.2 29.7335C32.3333 29.4446 32.4333 29.1335 32.5 28.8002L32.5333 28.4002C32.5333 28.2891 32.5222 28.2113 32.5 28.1668L30.6333 23.9668C30.8333 23.9224 31.0333 23.8557 31.2333 23.7668C31.4778 23.6335 31.6778 23.4891 31.8333 23.3335C31.9889 23.178 32.0389 23.0057 31.9833 22.8168C31.9278 22.628 31.8056 22.5002 31.6167 22.4335C31.4278 22.3668 31.2444 22.4113 31.0667 22.5668C30.9556 22.678 30.7833 22.7724 30.55 22.8502C30.3167 22.928 30.0778 22.9668 29.8333 22.9668C29.5444 22.9668 29.2556 22.9113 28.9667 22.8002C28.7889 22.7557 28.5222 22.6557 28.1667 22.5002C27.7889 22.3224 27.4889 22.2002 27.2667 22.1335C26.8667 22.0002 26.4556 21.9224 26.0333 21.9002V20.8002C26.0333 20.6446 25.9833 20.5113 25.8833 20.4002C25.7833 20.2891 25.6556 20.2335 25.5 20.2335C25.3444 20.2335 25.2167 20.2891 25.1167 20.4002C25.0167 20.5113 24.9667 20.6446 24.9667 20.8002V21.9002C24.5444 21.9224 24.1333 22.0002 23.7333 22.1335C23.5111 22.2002 23.2111 22.3224 22.8333 22.5002C22.4778 22.6557 22.2111 22.7557 22.0333 22.8002C21.7444 22.9113 21.4556 22.9668 21.1667 22.9668C20.9222 22.9668 20.6778 22.928 20.4333 22.8502C20.1889 22.7724 20.0111 22.678 19.9 22.5668C19.7222 22.4113 19.5444 22.3668 19.3667 22.4335C19.1889 22.5002 19.0667 22.628 19 22.8168C18.9333 23.0057 18.9778 23.178 19.1333 23.3335C19.4444 23.6446 19.8556 23.8557 20.3667 23.9668L18.5 28.1668C18.4556 28.2557 18.4333 28.3335 18.4333 28.4002L18.4667 28.8002C18.5333 29.1335 18.6333 29.4446 18.7667 29.7335C18.9667 30.1335 19.2333 30.4446 19.5667 30.6668C20.0111 30.9557 20.5389 31.1002 21.15 31.1002C21.7611 31.1002 22.2889 30.9557 22.7333 30.6668C23.0667 30.4446 23.3333 30.1335 23.5333 29.7335C23.6667 29.4446 23.7667 29.1335 23.8333 28.8002L23.8667 28.4002C23.8667 28.2891 23.8556 28.2113 23.8333 28.1668L21.9667 23.9668C22.2333 23.9224 22.6111 23.7891 23.1 23.5668C23.5222 23.3668 23.8556 23.2335 24.1 23.1668C24.5444 23.0335 25.0056 22.9668 25.4833 22.9668C25.9611 22.9668 26.4111 23.0335 26.8333 23.1668C27.1 23.2335 27.4333 23.3668 27.8333 23.5668C28.3444 23.7891 28.7444 23.9224 29.0333 23.9668ZM11.9333 20.9335L12.7667 21.5335L12.1667 22.4335H11.6667L11.0667 21.5335L11.9333 20.9335ZM10.2 22.1668L10.8 23.1002L10.3667 25.8002L9.4 22.7002L10.2 22.1668ZM13.6667 22.1668L14.4333 22.7002L13.5 25.8002L13.0333 23.1002L13.6667 22.1668ZM11.8333 23.5002H12L12.7667 28.1335L11.9333 30.9002L11.0667 28.1335L11.8333 23.5002ZM25.5 24.0335C25.3667 24.0335 25.2444 24.0835 25.1333 24.1835C25.0222 24.2835 24.9667 24.4113 24.9667 24.5668V32.2002H22.7667C22.5444 32.2002 22.3889 32.2946 22.3 32.4835C22.2111 32.6724 22.2111 32.8502 22.3 33.0168C22.3889 33.1835 22.5444 33.2668 22.7667 33.2668H28.2C28.4222 33.2668 28.5833 33.1835 28.6833 33.0168C28.7833 32.8502 28.7889 32.6724 28.7 32.4835C28.6111 32.2946 28.4556 32.2002 28.2333 32.2002H26.0333V24.6002C26.0333 24.4224 25.9778 24.2835 25.8667 24.1835C25.7556 24.0835 25.6333 24.0335 25.5 24.0335ZM21.1667 24.8335L22.5 27.8335H19.8333L21.1667 24.8335ZM29.8333 24.8335L31.1667 27.8335H28.5L29.8333 24.8335ZM19.6333 28.9335H22.7L22.6 29.2002C22.4889 29.4224 22.3444 29.6002 22.1667 29.7335C21.9 29.9113 21.5667 30.0002 21.1667 30.0002C20.7667 30.0002 20.4333 29.9113 20.1667 29.7335C19.9889 29.6002 19.8444 29.4224 19.7333 29.2002L19.6333 28.9335ZM28.3 28.9335H31.3667L31.2667 29.2335C31.1556 29.4335 31.0111 29.6002 30.8333 29.7335C30.5667 29.9335 30.2333 30.0335 29.8333 30.0335C29.4333 30.0335 29.1 29.9335 28.8333 29.7335C28.6556 29.6002 28.5111 29.4335 28.4 29.2335L28.3 28.9335Z" fill="#F98D21"/>
</g>
<defs>
<clipPath id="clip0_717_19808">
<rect width="33.3333" height="34" fill="white" transform="matrix(1 0 0 -1 0 34)"/>
</clipPath>
</defs>
</svg>
