<svg width="34" height="34" viewBox="0 0 34 34" fill="none" xmlns="http://www.w3.org/2000/svg">
<g clip-path="url(#clip0_717_19802)">
<path d="M16.6667 8.93335L20.6333 5.66669H25.8V0.333351H12.9V5.66669H16.6667V8.93335ZM13.9667 4.60002V1.40002H24.7333V4.60002H20.2333L17.7333 6.66669V4.60002H13.9667ZM15.0667 2.46668H16.1333V3.53335H15.0667V2.46668ZM17.2 2.46668H21.5V3.53335H17.2V2.46668ZM22.5667 2.46668H23.6667V3.53335H22.5667V2.46668ZM27.3667 32.3667L26.9333 28.0333C27.8444 27.9 28.6 27.4889 29.2 26.8C29.8 26.1111 30.1 25.3 30.1 24.3667V17.4334H27.9667V16.6667C27.9667 16.3111 27.8722 15.9778 27.6833 15.6667C27.4944 15.3556 27.2333 15.1222 26.9 14.9667C27.2333 14.6556 27.4944 14.3 27.6833 13.9C27.8722 13.5 27.9667 13.0667 27.9667 12.6V11.5333C27.9667 10.9556 27.8222 10.4222 27.5333 9.93335C27.2444 9.44446 26.85 9.05557 26.35 8.76668C25.85 8.47779 25.3111 8.33335 24.7333 8.33335C24.1556 8.33335 23.6167 8.47779 23.1167 8.76668C22.6167 9.05557 22.2222 9.44446 21.9333 9.93335C21.6444 10.4222 21.5 10.9556 21.5 11.5333V12.6C21.5 13.2889 21.7 13.9056 22.1 14.45C22.5 14.9945 23.0111 15.3889 23.6333 15.6334L20.7333 18.5H17.7333C17.6889 18.0556 17.5278 17.6556 17.25 17.3C16.9722 16.9445 16.6222 16.7 16.2 16.5667L13.9667 15.9334V15C14.3 14.6889 14.5667 14.3278 14.7667 13.9167C14.9667 13.5056 15.0667 13.0667 15.0667 12.6V11.5333C15.0667 10.9556 14.9222 10.4222 14.6333 9.93335C14.3444 9.44446 13.95 9.05557 13.45 8.76668C12.95 8.47779 12.4111 8.33335 11.8333 8.33335C11.2556 8.33335 10.7167 8.47779 10.2167 8.76668C9.71667 9.05557 9.32222 9.44446 9.03333 9.93335C8.74444 10.4222 8.6 10.9556 8.6 11.5333V12.6C8.6 13.0667 8.69444 13.5056 8.88333 13.9167C9.07222 14.3278 9.33333 14.6889 9.66667 15V15.9334L7.46667 16.5667C7.02222 16.7 6.65 16.9556 6.35 17.3334C6.05 17.7111 5.9 18.1445 5.9 18.6334V20.6334H3.76667V23.8334H4.83333V32.3667H0V33.4333H33.3333V32.3667H27.3667ZM22.5667 23.8334V21.3667L26.4 17.6C26.6667 17.3334 26.8222 16.9889 26.8667 16.5667L26.9 16.6667V23.3C26.9 23.7445 26.7389 24.1222 26.4167 24.4334C26.0944 24.7445 25.7111 24.9 25.2667 24.9H20.9667V23.8334H22.5667ZM20.9667 28.1H23.7L24.1333 32.3667H20.9667V28.1ZM24.8 28.1H25.8667L26.3 32.3667H25.2333L24.8 28.1ZM27.9667 23.3V18.5H29.0333V24.3667C29.0333 25.1 28.7722 25.7278 28.25 26.25C27.7278 26.7722 27.0889 27.0333 26.3333 27.0333H20.9667V25.9667H25.2667C26.0222 25.9667 26.6611 25.7056 27.1833 25.1834C27.7056 24.6611 27.9667 24.0333 27.9667 23.3ZM22.5667 12.6V11.5333C22.5667 10.9556 22.7778 10.4556 23.2 10.0334C23.6222 9.61113 24.1333 9.40002 24.7333 9.40002C25.3333 9.40002 25.8444 9.61113 26.2667 10.0334C26.6889 10.4556 26.9 10.9556 26.9 11.5333V12.6C26.9 13.2 26.6889 13.7056 26.2667 14.1167C25.8444 14.5278 25.3333 14.7334 24.7333 14.7334C24.1333 14.7334 23.6222 14.5278 23.2 14.1167C22.7778 13.7056 22.5667 13.2 22.5667 12.6ZM21.2 19.5667L24.7667 16C24.8778 15.8889 25.0167 15.8334 25.1833 15.8334C25.35 15.8334 25.4944 15.8889 25.6167 16C25.7389 16.1111 25.8 16.25 25.8 16.4167C25.8 16.5834 25.7444 16.7222 25.6333 16.8334L21.8333 20.6334H16.1333C15.9778 20.6334 15.85 20.5834 15.75 20.4834C15.65 20.3834 15.6 20.2556 15.6 20.1C15.6 19.9445 15.65 19.8167 15.75 19.7167C15.85 19.6167 15.9778 19.5667 16.1333 19.5667H21.2ZM9.66667 11.5333C9.66667 10.9556 9.87778 10.4556 10.3 10.0334C10.7222 9.61113 11.2278 9.40002 11.8167 9.40002C12.4056 9.40002 12.9111 9.61113 13.3333 10.0334C13.7556 10.4556 13.9667 10.9556 13.9667 11.5333V12.6C13.9667 13.2 13.7556 13.7056 13.3333 14.1167C12.9111 14.5278 12.4056 14.7334 11.8167 14.7334C11.2278 14.7334 10.7222 14.5278 10.3 14.1167C9.87778 13.7056 9.66667 13.2 9.66667 12.6V11.5333ZM11.8333 15.8334C12.1 15.8334 12.4556 15.7667 12.9 15.6334V16.2C12.5889 16.6667 12.2333 16.9 11.8333 16.9C11.4333 16.9 11.0778 16.6667 10.7667 16.2V15.6334C11.2111 15.7667 11.5667 15.8334 11.8333 15.8334ZM7 18.6334C7 18.3889 7.07222 18.1722 7.21667 17.9834C7.36111 17.7945 7.54444 17.6667 7.76667 17.6L10 16.9667C10.5111 17.6334 11.1278 17.9667 11.85 17.9667C12.5722 17.9667 13.1778 17.6334 13.6667 16.9667L15.9 17.6C16.1 17.6667 16.2667 17.7778 16.4 17.9334C16.5333 18.0889 16.6111 18.2778 16.6333 18.5H16.1333C15.6889 18.5 15.3111 18.6556 15 18.9667C14.6889 19.2778 14.5333 19.6556 14.5333 20.1C14.5333 20.2778 14.5667 20.4556 14.6333 20.6334H7V18.6334ZM4.83333 21.7H21.5V22.7667H4.83333V21.7ZM5.9 25.9667H7.53333V24.9H5.9V23.8334H19.9V24.9H8.6V25.9667H19.9V32.3667H18.6L17.5333 30.2333H8.26667L7.2 32.3667H5.9V25.9667ZM17.4 32.3667H8.4L8.93333 31.3H16.8667L17.4 32.3667Z" fill="#F98D21"/>
</g>
<defs>
<clipPath id="clip0_717_19802">
<rect width="33.3333" height="34" fill="white" transform="matrix(1 0 0 -1 0 34)"/>
</clipPath>
</defs>
</svg>
