<svg width="34" height="34" viewBox="0 0 34 34" fill="none" xmlns="http://www.w3.org/2000/svg">
<g clip-path="url(#clip0_717_19820)">
<path d="M16.6667 8.93311L20.6333 5.66644H25.8V0.333107H12.9V5.66644H16.6667V8.93311ZM13.9667 4.59977V1.39977H24.7333V4.59977H20.2333L17.7333 6.66644V4.59977H13.9667ZM15.0667 2.46644H16.1333V3.53311H15.0667V2.46644ZM17.2 2.46644H21.5V3.53311H17.2V2.46644ZM22.5667 2.46644H23.6667V3.53311H22.5667V2.46644ZM27.3667 32.3664L26.9333 28.0331C27.8444 27.8998 28.6 27.4887 29.2 26.7998C29.8 26.1109 30.1 25.2998 30.1 24.3664V17.4331H27.9667V16.6664C27.9667 16.3109 27.8722 15.9776 27.6833 15.6664C27.4944 15.3553 27.2333 15.122 26.9 14.9664C27.2333 14.6553 27.4944 14.2998 27.6833 13.8998C27.8722 13.4998 27.9667 13.0664 27.9667 12.5998V11.5331C27.9667 10.9553 27.8222 10.422 27.5333 9.93311C27.2444 9.44422 26.85 9.05533 26.35 8.76644C25.85 8.47755 25.3111 8.33311 24.7333 8.33311C24.1556 8.33311 23.6167 8.47755 23.1167 8.76644C22.6167 9.05533 22.2222 9.44422 21.9333 9.93311C21.6444 10.422 21.5 10.9553 21.5 11.5331V12.5998C21.5 13.2887 21.7 13.9053 22.1 14.4498C22.5 14.9942 23.0111 15.3887 23.6333 15.6331L20.7333 18.4998H17.7333C17.6889 18.0553 17.5278 17.6553 17.25 17.2998C16.9722 16.9442 16.6222 16.6998 16.2 16.5664L13.9667 15.9331V14.9998C14.3 14.6887 14.5667 14.3276 14.7667 13.9164C14.9667 13.5053 15.0667 13.0664 15.0667 12.5998V11.5331C15.0667 10.9553 14.9222 10.422 14.6333 9.93311C14.3444 9.44422 13.95 9.05533 13.45 8.76644C12.95 8.47755 12.4111 8.33311 11.8333 8.33311C11.2556 8.33311 10.7167 8.47755 10.2167 8.76644C9.71667 9.05533 9.32222 9.44422 9.03333 9.93311C8.74444 10.422 8.6 10.9553 8.6 11.5331V12.5998C8.6 13.0664 8.69444 13.5053 8.88333 13.9164C9.07222 14.3276 9.33333 14.6887 9.66667 14.9998V15.9331L7.46667 16.5664C7.02222 16.6998 6.65 16.9553 6.35 17.3331C6.05 17.7109 5.9 18.1442 5.9 18.6331V20.6331H3.76667V23.8331H4.83333V32.3664H0V33.4331H33.3333V32.3664H27.3667ZM22.5667 23.8331V21.3664L26.4 17.5998C26.6667 17.3331 26.8222 16.9887 26.8667 16.5664L26.9 16.6664V23.2998C26.9 23.7442 26.7389 24.122 26.4167 24.4331C26.0944 24.7442 25.7111 24.8998 25.2667 24.8998H20.9667V23.8331H22.5667ZM20.9667 28.0998H23.7L24.1333 32.3664H20.9667V28.0998ZM24.8 28.0998H25.8667L26.3 32.3664H25.2333L24.8 28.0998ZM27.9667 23.2998V18.4998H29.0333V24.3664C29.0333 25.0998 28.7722 25.7276 28.25 26.2498C27.7278 26.772 27.0889 27.0331 26.3333 27.0331H20.9667V25.9664H25.2667C26.0222 25.9664 26.6611 25.7053 27.1833 25.1831C27.7056 24.6609 27.9667 24.0331 27.9667 23.2998ZM22.5667 12.5998V11.5331C22.5667 10.9553 22.7778 10.4553 23.2 10.0331C23.6222 9.61088 24.1333 9.39977 24.7333 9.39977C25.3333 9.39977 25.8444 9.61088 26.2667 10.0331C26.6889 10.4553 26.9 10.9553 26.9 11.5331V12.5998C26.9 13.1998 26.6889 13.7053 26.2667 14.1164C25.8444 14.5276 25.3333 14.7331 24.7333 14.7331C24.1333 14.7331 23.6222 14.5276 23.2 14.1164C22.7778 13.7053 22.5667 13.1998 22.5667 12.5998ZM21.2 19.5664L24.7667 15.9998C24.8778 15.8887 25.0167 15.8331 25.1833 15.8331C25.35 15.8331 25.4944 15.8887 25.6167 15.9998C25.7389 16.1109 25.8 16.2498 25.8 16.4164C25.8 16.5831 25.7444 16.722 25.6333 16.8331L21.8333 20.6331H16.1333C15.9778 20.6331 15.85 20.5831 15.75 20.4831C15.65 20.3831 15.6 20.2553 15.6 20.0998C15.6 19.9442 15.65 19.8164 15.75 19.7164C15.85 19.6164 15.9778 19.5664 16.1333 19.5664H21.2ZM9.66667 11.5331C9.66667 10.9553 9.87778 10.4553 10.3 10.0331C10.7222 9.61088 11.2278 9.39977 11.8167 9.39977C12.4056 9.39977 12.9111 9.61088 13.3333 10.0331C13.7556 10.4553 13.9667 10.9553 13.9667 11.5331V12.5998C13.9667 13.1998 13.7556 13.7053 13.3333 14.1164C12.9111 14.5276 12.4056 14.7331 11.8167 14.7331C11.2278 14.7331 10.7222 14.5276 10.3 14.1164C9.87778 13.7053 9.66667 13.1998 9.66667 12.5998V11.5331ZM11.8333 15.8331C12.1 15.8331 12.4556 15.7664 12.9 15.6331V16.1998C12.5889 16.6664 12.2333 16.8998 11.8333 16.8998C11.4333 16.8998 11.0778 16.6664 10.7667 16.1998V15.6331C11.2111 15.7664 11.5667 15.8331 11.8333 15.8331ZM7 18.6331C7 18.3887 7.07222 18.172 7.21667 17.9831C7.36111 17.7942 7.54444 17.6664 7.76667 17.5998L10 16.9664C10.5111 17.6331 11.1278 17.9664 11.85 17.9664C12.5722 17.9664 13.1778 17.6331 13.6667 16.9664L15.9 17.5998C16.1 17.6664 16.2667 17.7776 16.4 17.9331C16.5333 18.0887 16.6111 18.2776 16.6333 18.4998H16.1333C15.6889 18.4998 15.3111 18.6553 15 18.9664C14.6889 19.2776 14.5333 19.6553 14.5333 20.0998C14.5333 20.2776 14.5667 20.4553 14.6333 20.6331H7V18.6331ZM4.83333 21.6998H21.5V22.7664H4.83333V21.6998ZM5.9 25.9664H7.53333V24.8998H5.9V23.8331H19.9V24.8998H8.6V25.9664H19.9V32.3664H18.6L17.5333 30.2331H8.26667L7.2 32.3664H5.9V25.9664ZM17.4 32.3664H8.4L8.93333 31.2998H16.8667L17.4 32.3664Z" fill="#F98D21"/>
</g>
<defs>
<clipPath id="clip0_717_19820">
<rect width="33.3333" height="34" fill="white" transform="matrix(1 0 0 -1 0 34)"/>
</clipPath>
</defs>
</svg>
