<svg width="33" height="34" viewBox="0 0 33 34" fill="none" xmlns="http://www.w3.org/2000/svg">
<g clip-path="url(#clip0_717_19826)">
<path d="M30.1 26.3H28.1333C28.1778 26.2111 28.2 26.1222 28.2 26.0333L29.4 18.9C29.4444 18.6556 29.4333 18.4278 29.3667 18.2167C29.3 18.0056 29.2 17.8222 29.0667 17.6667C28.8889 17.4889 28.7111 17.3556 28.5333 17.2667C28.3111 17.1556 28.1 17.1 27.9 17.1H19.6667C19.2222 17.1 18.7778 17.2667 18.3333 17.6C17.9556 17.9111 17.7333 18.3222 17.6667 18.8334L16.7333 24.2667H16.3333V22.0333C16.3333 21.0778 16.0556 20.1889 15.5 19.3667C14.9667 18.6111 14.2333 18.0556 13.3 17.7L10.7 16.7667V16.3334C11.5889 16.0445 12.3333 15.4889 12.9333 14.6667C13.4889 13.8667 13.7667 12.9778 13.7667 12V5.36668C13.7667 5.21113 13.7222 5.08891 13.6333 5.00002C13.5444 4.91113 13.4222 4.86668 13.2667 4.86668H7.13333C6.8 4.86668 6.47222 4.93335 6.15 5.06668C5.82778 5.20002 5.55556 5.3778 5.33333 5.60002C4.84444 6.13335 4.6 6.73335 4.6 7.40002V9.53335C4.28889 9.64446 4.03889 9.83891 3.85 10.1167C3.66111 10.3945 3.56667 10.6945 3.56667 11.0167C3.56667 11.3389 3.66111 11.6278 3.85 11.8834C4.03889 12.1389 4.28889 12.3222 4.6 12.4334C4.71111 13.5445 5.15556 14.4889 5.93333 15.2667C6.15556 15.4889 6.38889 15.6778 6.63333 15.8334V16.7667L4.03333 17.7C3.12222 18.0556 2.38889 18.6111 1.83333 19.3667C1.27778 20.1889 1 21.0778 1 22.0333V24.7667C1 25.3222 1.17778 25.8334 1.53333 26.3H0.5C0.366667 26.3 0.25 26.35 0.15 26.45C0.05 26.55 0 26.6778 0 26.8334V28.8667C0 29.0222 0.0444444 29.1445 0.133333 29.2333C0.222222 29.3222 0.344444 29.3667 0.5 29.3667H1.53333V31.9333C1.53333 32.0889 1.57778 32.2111 1.66667 32.3C1.75556 32.3889 1.87778 32.4333 2.03333 32.4333H28.6C28.7333 32.4333 28.85 32.3833 28.95 32.2833C29.05 32.1833 29.1 32.0667 29.1 31.9333V29.3667H30.1C30.2556 29.3667 30.3833 29.3167 30.4833 29.2167C30.5833 29.1167 30.6333 29 30.6333 28.8667V26.8334C30.6333 26.7 30.5778 26.5778 30.4667 26.4667C30.3556 26.3556 30.2333 26.3 30.1 26.3ZM27.9 18.1334C27.9444 18.1334 28.0111 18.1556 28.1 18.2C28.1444 18.2 28.2 18.2334 28.2667 18.3C28.3333 18.3667 28.3722 18.4334 28.3833 18.5C28.3944 18.5667 28.4 18.6445 28.4 18.7334L27.2 25.8667C27.1556 26.0222 27.0944 26.1333 27.0167 26.2C26.9389 26.2667 26.8333 26.3 26.7 26.3H19.5L20.8333 18.1334H27.9ZM18.6667 19C18.7111 18.7556 18.8222 18.5445 19 18.3667C19.2444 18.2111 19.4667 18.1334 19.6667 18.1334H19.8L18.4333 26.3H17.4333L18.6667 19ZM16.5667 25.3L16.4 26.3H12.7667C12.6111 26.3 12.4833 26.25 12.3833 26.15C12.2833 26.05 12.2333 25.9334 12.2333 25.8V25.3H16.5667ZM5.6 7.40002C5.6 7.00002 5.75556 6.64446 6.06667 6.33335C6.31111 6.06668 6.66667 5.91113 7.13333 5.86668H12.7667V7.53335L11.9 7.66669C11.1222 7.84446 10.3889 7.93335 9.7 7.93335C9.27778 7.95557 8.82222 7.8778 8.33333 7.70002C7.8 7.50002 7.23333 7.40002 6.63333 7.40002C6.5 7.40002 6.38333 7.45002 6.28333 7.55002C6.18333 7.65002 6.13333 7.7778 6.13333 7.93335V8.93335C6.13333 9.06668 6.07778 9.18891 5.96667 9.30002C5.85556 9.41113 5.73333 9.46668 5.6 9.46668V7.40002ZM5.6 12C5.6 11.8445 5.54444 11.7222 5.43333 11.6334C5.32222 11.5445 5.20556 11.5 5.08333 11.5C4.96111 11.5 4.84444 11.4445 4.73333 11.3334C4.64444 11.2667 4.6 11.1556 4.6 11C4.6 10.8445 4.65 10.7167 4.75 10.6167C4.85 10.5167 4.96667 10.4667 5.1 10.4667H5.6C6 10.4667 6.36667 10.3222 6.7 10.0334C6.98889 9.70002 7.13333 9.33335 7.13333 8.93335V8.46668C7.42222 8.46668 7.7 8.53335 7.96667 8.66669C8.56667 8.86668 9.14444 8.95557 9.7 8.93335C10.5889 8.93335 11.3889 8.84446 12.1 8.66669L12.7667 8.56668V12C12.7667 12.4667 12.6778 12.9167 12.5 13.35C12.3222 13.7833 12.0611 14.1722 11.7167 14.5167C11.3722 14.8611 10.9833 15.1278 10.55 15.3167C10.1167 15.5056 9.66111 15.6 9.18333 15.6C8.70555 15.6 8.24444 15.5 7.8 15.3C7.4 15.1445 7.02778 14.8945 6.68333 14.55C6.33889 14.2056 6.07222 13.8056 5.88333 13.35C5.69444 12.8945 5.6 12.4445 5.6 12ZM9.7 16.5667V17.1C9.7 17.3889 9.6 17.6334 9.4 17.8334C9.2 18.0333 8.95555 18.1334 8.66667 18.1334C8.37778 18.1334 8.13333 18.0222 7.93333 17.8C7.73333 17.5778 7.63333 17.3445 7.63333 17.1V16.3334C8.16667 16.5111 8.67778 16.6 9.16667 16.6C9.41111 16.6 9.58889 16.5889 9.7 16.5667ZM2.03333 22.0333C2.03333 21.2778 2.25556 20.5834 2.7 19.95C3.14444 19.3167 3.71111 18.8889 4.4 18.6667L6.76667 17.8C6.9 18.1778 7.14444 18.5 7.5 18.7667C7.85556 19.0333 8.24444 19.1667 8.66667 19.1667C9.08889 19.1667 9.47222 19.0445 9.81667 18.8C10.1611 18.5556 10.4222 18.2222 10.6 17.8L12.9667 18.6667C13.6556 18.9111 14.2167 19.3445 14.65 19.9667C15.0833 20.5889 15.3 21.2778 15.3 22.0333V24.2667H13.7667V21.2H12.7667V24.2667H11.7333C11.6222 24.2667 11.5111 24.3111 11.4 24.4C11.2889 24.4889 11.2333 24.6111 11.2333 24.7667V25.8C11.2333 25.9111 11.2556 26.0778 11.3 26.3H8.66667C8.66667 25.9667 8.6 25.6389 8.46667 25.3167C8.33333 24.9945 8.15555 24.7222 7.93333 24.5C7.4 24.0111 6.8 23.7667 6.13333 23.7667H4.6V21.2H3.56667V24.2667C3.56667 24.3778 3.61111 24.4889 3.7 24.6C3.78889 24.7111 3.91111 24.7667 4.06667 24.7667H5.1V26.3H3.56667C3.16667 26.3 2.8 26.1556 2.46667 25.8667C2.17778 25.5333 2.03333 25.1667 2.03333 24.7667V22.0333ZM7.63333 26.3H6.13333V24.7667C6.53333 24.7667 6.88889 24.9222 7.2 25.2333C7.48889 25.5 7.63333 25.8556 7.63333 26.3ZM28.0667 31.4H2.53333V29.3667H28.0667V31.4ZM29.6 28.3333H1V27.3333H29.6V28.3333ZM24 23.7667C24.3111 23.7667 24.6 23.6778 24.8667 23.5C25.1333 23.3222 25.3222 23.0945 25.4333 22.8167C25.5444 22.5389 25.5667 22.2445 25.5 21.9334C25.4333 21.6222 25.2833 21.35 25.05 21.1167C24.8167 20.8834 24.5556 20.7445 24.2667 20.7C23.9778 20.6556 23.6889 20.6889 23.4 20.8C23.1556 20.9334 22.9222 21.1222 22.7 21.3667C22.5444 21.6111 22.4667 21.9 22.4667 22.2333C22.4667 22.6556 22.6167 23.0167 22.9167 23.3167C23.2167 23.6167 23.5778 23.7667 24 23.7667ZM24 21.7C24.1111 21.7 24.2111 21.7333 24.3 21.8C24.3889 21.8667 24.4444 21.9389 24.4667 22.0167C24.4889 22.0945 24.4889 22.1945 24.4667 22.3167C24.4444 22.4389 24.4056 22.5278 24.35 22.5834C24.2944 22.6389 24.2056 22.6778 24.0833 22.7C23.9611 22.7222 23.8611 22.7222 23.7833 22.7C23.7056 22.6778 23.6333 22.6222 23.5667 22.5333C23.5 22.4445 23.4667 22.3389 23.4667 22.2167C23.4667 22.0945 23.5222 21.9778 23.6333 21.8667C23.7444 21.7556 23.8667 21.7 24 21.7ZM8.66667 9.96668H7.63333V11H8.66667V9.96668ZM11.7333 9.96668H10.7V11H11.7333V9.96668ZM15.7333 10.4667L17.1 10.6667C17.1667 10.8667 17.2889 11.1445 17.4667 11.5L16.6333 12.6C16.5667 12.6889 16.5333 12.8 16.5333 12.9334C16.5333 13.0667 16.5778 13.1778 16.6667 13.2667L18.1333 14.7334C18.2222 14.8222 18.3333 14.8667 18.4667 14.8667C18.6 14.8667 18.7111 14.8334 18.8 14.7667L19.9 13.9334C20.2556 14.1111 20.5333 14.2334 20.7333 14.3L20.9333 15.6667C20.9333 15.8 20.9833 15.9056 21.0833 15.9834C21.1833 16.0611 21.3 16.1 21.4333 16.1H23.4667C23.6222 16.1 23.7389 16.0611 23.8167 15.9834C23.8944 15.9056 23.9556 15.8 24 15.6667L24.1667 14.3C24.3667 14.2334 24.6444 14.1111 25 13.9334L26.1333 14.7667C26.2444 14.8334 26.35 14.8667 26.45 14.8667C26.55 14.8667 26.6667 14.8222 26.8 14.7334L28.2333 13.2667C28.3222 13.2 28.3778 13.1 28.4 12.9667C28.4222 12.8334 28.3778 12.7111 28.2667 12.6L27.4667 11.5C27.5778 11.2778 27.6889 11 27.8 10.6667L29.1667 10.4667C29.3 10.4667 29.4056 10.4167 29.4833 10.3167C29.5611 10.2167 29.6 10.1 29.6 9.96668V7.93335C29.6 7.7778 29.5556 7.66669 29.4667 7.60002C29.4 7.48891 29.3 7.43335 29.1667 7.43335L27.8 7.23335C27.6889 6.90002 27.5778 6.62224 27.4667 6.40002L28.2667 5.26669C28.3556 5.1778 28.3944 5.06668 28.3833 4.93335C28.3722 4.80002 28.3222 4.68891 28.2333 4.60002L26.8 3.16669C26.7111 3.0778 26.6 3.0278 26.4667 3.01669C26.3333 3.00557 26.2222 3.04446 26.1333 3.13335L25 3.96668C24.8 3.83335 24.5222 3.71113 24.1667 3.60002L24 2.23335C23.9778 2.10002 23.9222 1.99446 23.8333 1.91669C23.7444 1.83891 23.6222 1.80002 23.4667 1.80002H21.4333C21.3 1.80002 21.1833 1.83891 21.0833 1.91669C20.9833 1.99446 20.9333 2.10002 20.9333 2.23335L20.7333 3.60002C20.3778 3.71113 20.1 3.83335 19.9 3.96668L18.8 3.13335C18.6889 3.02224 18.5667 2.9778 18.4333 3.00002C18.3 3.02224 18.2 3.0778 18.1333 3.16669L16.6667 4.60002C16.5778 4.73335 16.5333 4.85002 16.5333 4.95002C16.5333 5.05002 16.5667 5.15557 16.6333 5.26669L17.4667 6.40002C17.2889 6.75557 17.1667 7.03335 17.1 7.23335L15.7333 7.43335C15.6 7.43335 15.4944 7.48335 15.4167 7.58335C15.3389 7.68335 15.3 7.80002 15.3 7.93335V9.96668C15.3 10.0556 15.3389 10.1611 15.4167 10.2833C15.4944 10.4056 15.6 10.4667 15.7333 10.4667ZM16.3333 8.36668L17.6 8.20002C17.6889 8.1778 17.7778 8.1278 17.8667 8.05002C17.9556 7.97224 18 7.88891 18 7.80002C18.1556 7.31113 18.3222 6.91113 18.5 6.60002C18.5889 6.51113 18.6222 6.41669 18.6 6.31668C18.5778 6.21668 18.5333 6.12224 18.4667 6.03335L17.7 5.03335L18.5333 4.20002L19.5333 4.96668C19.6444 5.03335 19.7444 5.06668 19.8333 5.06668C19.9222 5.06668 20.0111 5.04446 20.1 5.00002C20.5 4.75557 20.9111 4.58891 21.3333 4.50002C21.4444 4.45557 21.5333 4.39446 21.6 4.31668C21.6667 4.23891 21.7 4.15557 21.7 4.06668L21.8667 2.83335H23.0333L23.2 4.06668C23.2444 4.20002 23.2889 4.29446 23.3333 4.35002C23.3778 4.40557 23.4667 4.45557 23.6 4.50002C24.0444 4.58891 24.4444 4.75557 24.8 5.00002C24.9333 5.04446 25.0444 5.06668 25.1333 5.06668C25.2222 5.06668 25.3 5.03335 25.3667 4.96668L26.3667 4.20002L27.2 5.03335L26.4333 6.03335C26.3667 6.12224 26.3333 6.21668 26.3333 6.31668C26.3333 6.41669 26.3556 6.51113 26.4 6.60002C26.6222 6.95557 26.7889 7.35557 26.9 7.80002C26.9444 7.93335 26.9944 8.02224 27.05 8.06668C27.1056 8.11113 27.2 8.15557 27.3333 8.20002L28.6 8.36668V9.53335L27.3333 9.70002C27.2 9.74446 27.1056 9.78891 27.05 9.83335C26.9944 9.8778 26.9444 9.96668 26.9 10.1C26.8111 10.5 26.6444 10.9 26.4 11.3C26.3556 11.3889 26.3333 11.4778 26.3333 11.5667C26.3333 11.6556 26.3667 11.7556 26.4333 11.8667L27.2 12.8667L26.3667 13.7L25.3667 12.9334C25.3 12.8667 25.2056 12.8334 25.0833 12.8334C24.9611 12.8334 24.8667 12.8556 24.8 12.9C24.4444 13.1222 24.0444 13.2889 23.6 13.4C23.4667 13.4445 23.3722 13.5 23.3167 13.5667C23.2611 13.6334 23.2222 13.7111 23.2 13.8L23.0333 15.0667H21.8667L21.7 13.8C21.7 13.7556 21.6667 13.6889 21.6 13.6L21.5667 13.5333C21.5222 13.4667 21.4444 13.4222 21.3333 13.4C20.9111 13.3111 20.5 13.1445 20.1 12.9C20.0556 12.8556 19.9778 12.8334 19.8667 12.8334C19.7556 12.8334 19.6444 12.8667 19.5333 12.9334L18.5333 13.7L17.7 12.8667L18.4667 11.8667C18.5333 11.7556 18.5778 11.65 18.6 11.55C18.6222 11.45 18.5889 11.3667 18.5 11.3C18.3 10.9 18.1333 10.5 18 10.1C18 10.0111 17.9556 9.9278 17.8667 9.85002C17.7778 9.77224 17.6889 9.72224 17.6 9.70002L16.3333 9.53335V8.36668ZM22.4667 12C23.1111 12 23.6833 11.8334 24.1833 11.5C24.6833 11.1667 25.05 10.7222 25.2833 10.1667C25.5167 9.61113 25.5667 9.00557 25.4333 8.35002C25.3 7.69446 25.0222 7.16113 24.6 6.75002C24.1778 6.33891 23.6667 6.07224 23.0667 5.95002C22.4667 5.8278 21.8722 5.88335 21.2833 6.11668C20.6944 6.35002 20.2333 6.71668 19.9 7.21668C19.5667 7.71668 19.4 8.28891 19.4 8.93335C19.4 9.7778 19.6944 10.5 20.2833 11.1C20.8722 11.7 21.6 12 22.4667 12ZM22.4667 6.90002C22.8444 6.90002 23.2167 7.01668 23.5833 7.25002C23.95 7.48335 24.2056 7.78335 24.35 8.15002C24.4944 8.51668 24.5222 8.91669 24.4333 9.35002C24.3444 9.78335 24.1667 10.1334 23.9 10.4C23.5667 10.6889 23.2222 10.8667 22.8667 10.9334C22.4444 11.0445 22.0389 11.0111 21.65 10.8334C21.2611 10.6556 20.9667 10.4 20.7667 10.0667C20.5222 9.71113 20.4 9.33335 20.4 8.93335C20.4 8.42224 20.6 7.94446 21 7.50002C21.4444 7.10002 21.9333 6.90002 22.4667 6.90002ZM9.7 14.5667C9.96667 14.5667 10.2278 14.5111 10.4833 14.4C10.7389 14.2889 10.9556 14.1445 11.1333 13.9667C11.5333 13.5667 11.7333 13.0889 11.7333 12.5333H10.7C10.7 12.8222 10.6111 13.0611 10.4333 13.25C10.2556 13.4389 10.0167 13.5333 9.71667 13.5333C9.41667 13.5333 9.16667 13.4389 8.96667 13.25C8.76667 13.0611 8.66667 12.8222 8.66667 12.5333H7.63333C7.63333 13.0445 7.83333 13.5222 8.23333 13.9667C8.67778 14.3667 9.16667 14.5667 9.7 14.5667Z" fill="#F98D21"/>
</g>
<defs>
<clipPath id="clip0_717_19826">
<rect width="32.6667" height="34" fill="white" transform="matrix(1 0 0 -1 0 34)"/>
</clipPath>
</defs>
</svg>
