<svg width="33" height="34" viewBox="0 0 33 34" fill="none" xmlns="http://www.w3.org/2000/svg">
<g clip-path="url(#clip0_717_19814)">
<path d="M21.7333 26.5336L18.4 25.4336V24.0669C18.8889 23.7336 19.3056 23.3169 19.65 22.8169C19.9944 22.3169 20.2222 21.778 20.3333 21.2003H20.9333C21.3333 21.2003 21.6889 21.0558 22 20.7669C22.3111 20.478 22.4667 20.1114 22.4667 19.6669C22.4667 19.2225 22.3222 18.8669 22.0333 18.6003C21.7222 18.2892 21.3556 18.1336 20.9333 18.1336H20.6667L21.1667 16.9003C21.4111 16.278 21.5 15.6503 21.4333 15.0169C21.3667 14.3836 21.1444 13.7892 20.7667 13.2336C20.4333 12.7003 19.9722 12.278 19.3833 11.9669C18.7944 11.6558 18.1778 11.5003 17.5333 11.5003H14.1667C13.5444 11.5003 12.9222 11.6558 12.3 11.9669C11.7444 12.2558 11.2778 12.678 10.9 13.2336C10.5222 13.7892 10.3 14.3836 10.2333 15.0169C10.1667 15.6503 10.2556 16.278 10.5 16.9003L11 18.1336H10.7333C10.2889 18.1336 9.92222 18.278 9.63333 18.5669C9.34444 18.8558 9.2 19.2169 9.2 19.6503C9.2 20.0836 9.35 20.4503 9.65 20.7503C9.95 21.0503 10.3111 21.2003 10.7333 21.2003H11.3667C11.5 21.778 11.7333 22.3058 12.0667 22.7836C12.4 23.2614 12.8111 23.6669 13.3 24.0003V25.4336L9.96667 26.5336C9.14444 26.8003 8.47222 27.2947 7.95 28.0169C7.42778 28.7391 7.16667 29.5447 7.16667 30.4336V32.4336C7.16667 32.5891 7.21111 32.7114 7.3 32.8003C7.38889 32.8891 7.51111 32.9336 7.66667 32.9336H24C24.1556 32.9336 24.2833 32.8836 24.3833 32.7836C24.4833 32.6836 24.5333 32.5669 24.5333 32.4336V30.4336C24.5333 29.5447 24.2778 28.7447 23.7667 28.0336C23.2556 27.3225 22.5778 26.8225 21.7333 26.5336ZM13.6667 26.3669L14.9667 27.7003L14.0667 28.1669L13.4 26.4669L13.6667 26.3669ZM15.6667 30.4003H16L16.6333 31.9336H15.0667L15.6667 30.4003ZM15.9667 29.3669H15.7L15.4333 28.6003L15.8333 28.4003L16.2333 28.6003L15.9667 29.3669ZM16.7 27.7003L18.0333 26.3669L18.3 26.4669L17.6 28.1669L16.7 27.7003ZM20.9333 19.1669C21.0889 19.1669 21.2167 19.2169 21.3167 19.3169C21.4167 19.4169 21.4667 19.5336 21.4667 19.6669C21.4667 19.8003 21.4167 19.9169 21.3167 20.0169C21.2167 20.1169 21.0889 20.1669 20.9333 20.1669H20.4333V19.1669H20.9333ZM14.1667 12.5336H17.5333C18.0222 12.5336 18.4778 12.6392 18.9 12.8503C19.3222 13.0614 19.6667 13.3725 19.9333 13.7836C20.2 14.1947 20.3611 14.6392 20.4167 15.1169C20.4722 15.5947 20.4111 16.0669 20.2333 16.5336L19.8 17.6336C19.4444 17.6114 19.1333 17.5058 18.8667 17.3169C18.6 17.128 18.3667 16.8669 18.1667 16.5336L17.8333 15.8669C17.8111 15.8003 17.75 15.7392 17.65 15.6836C17.55 15.628 17.4667 15.6003 17.4 15.6003C17.3333 15.6003 17.2333 15.6225 17.1 15.6669C17.0111 15.7558 16.9556 15.8225 16.9333 15.8669L16.5667 16.5336C16.4556 16.8447 16.2278 17.1058 15.8833 17.3169C15.5389 17.528 15.1889 17.6336 14.8333 17.6336H11.9L11.4667 16.5336C11.2667 16.0669 11.1889 15.6003 11.2333 15.1336C11.2778 14.6669 11.4444 14.2225 11.7333 13.8003C11.9778 13.4225 12.3333 13.1114 12.8 12.8669C13.1778 12.6447 13.6333 12.5336 14.1667 12.5336ZM10.7333 20.1669C10.5778 20.1669 10.4556 20.1225 10.3667 20.0336C10.2778 19.9447 10.2333 19.8225 10.2333 19.6669C10.2333 19.5114 10.2778 19.3891 10.3667 19.3003C10.4556 19.2114 10.5778 19.1669 10.7333 19.1669H11.2333V20.1669H10.7333ZM12.2667 20.1669V18.6336H14.8333C15.3889 18.6336 15.8778 18.5114 16.3 18.2669C16.7667 17.978 17.1222 17.6225 17.3667 17.2003C17.6111 17.6003 17.9 17.9114 18.2333 18.1336C18.6111 18.378 19 18.5336 19.4 18.6003V20.3003C19.4 21.278 19.0667 22.0891 18.4 22.7336C18.0889 23.0669 17.7167 23.3225 17.2833 23.5003C16.85 23.678 16.4111 23.7669 15.9667 23.7669H15.8667C15.4 23.7669 14.9444 23.6725 14.5 23.4836C14.0556 23.2947 13.6667 23.0336 13.3333 22.7003C13 22.3669 12.7389 21.978 12.55 21.5336C12.3611 21.0892 12.2667 20.6336 12.2667 20.1669ZM15.8667 24.7669H15.9667C16.5 24.7669 16.9667 24.6891 17.3667 24.5336V25.6003L15.8333 27.1336L14.3 25.6003V24.5003C14.8333 24.678 15.3556 24.7669 15.8667 24.7669ZM8.16667 30.4336C8.16667 29.7891 8.36111 29.1891 8.75 28.6336C9.13889 28.078 9.64444 27.7003 10.2667 27.5003L12.4333 26.8003L13.3333 29.0669C13.3333 29.0891 13.3556 29.1225 13.4 29.1669L13.4333 29.2336L13.6 29.3336C13.6444 29.3558 13.7167 29.3669 13.8167 29.3669C13.9167 29.3669 13.9889 29.3558 14.0333 29.3336L14.5333 29.0669L14.8 29.8669L13.9667 31.9336H11.2333V30.4003H10.2333V31.9336H8.16667V30.4336ZM23.5 31.9336H21.4667V30.4003H20.4333V31.9336H17.7333L16.9 29.8669L17.1667 29.0669L17.6667 29.3336C17.7111 29.3558 17.7778 29.3669 17.8667 29.3669C17.9556 29.3669 18.0222 29.3558 18.0667 29.3336C18.1556 29.2891 18.2111 29.2558 18.2333 29.2336C18.3 29.1669 18.3444 29.1114 18.3667 29.0669L19.2667 26.8003L21.4 27.5003C22 27.678 22.5111 28.0558 22.9333 28.6336C23.3111 29.1447 23.5 29.7447 23.5 30.4336V31.9336ZM29.6333 1.30026H20.4333C19.8556 1.30026 19.3722 1.48915 18.9833 1.86693C18.5944 2.24471 18.4 2.73359 18.4 3.3336V9.46693C18.4 10.0447 18.5944 10.528 18.9833 10.9169C19.3722 11.3058 19.8556 11.5003 20.4333 11.5003H23.5V13.0336C23.5 13.1447 23.5222 13.2392 23.5667 13.3169C23.6111 13.3947 23.6944 13.4558 23.8167 13.5003C23.9389 13.5447 24.0333 13.5558 24.1 13.5336C24.2333 13.4892 24.3222 13.4447 24.3667 13.4003L26.2667 11.5003H29.6333C30.2333 11.5003 30.7222 11.3058 31.1 10.9169C31.4778 10.528 31.6667 10.0447 31.6667 9.46693V3.3336C31.6667 2.73359 31.4778 2.24471 31.1 1.86693C30.7222 1.48915 30.2333 1.30026 29.6333 1.30026ZM30.6333 9.46693C30.6333 9.75582 30.5389 9.99471 30.35 10.1836C30.1611 10.3725 29.9222 10.4669 29.6333 10.4669H26.0667C25.9333 10.4669 25.8111 10.5225 25.7 10.6336L24.5333 11.8003V11.0003C24.5333 10.8669 24.4778 10.7447 24.3667 10.6336C24.2556 10.5225 24.1333 10.4669 24 10.4669H20.4333C20.1444 10.4669 19.9 10.3669 19.7 10.1669C19.5 9.96693 19.4 9.73359 19.4 9.46693V3.3336C19.4 3.08915 19.5 2.85582 19.7 2.6336C19.9 2.41137 20.1444 2.30026 20.4333 2.30026H29.6333C29.9222 2.30026 30.1611 2.40582 30.35 2.61693C30.5389 2.82804 30.6333 3.06693 30.6333 3.3336V9.46693ZM24.7333 5.86693H26.5667C26.7222 5.86693 26.8444 5.82248 26.9333 5.73359L27.6 5.06693V5.86693H28.6V3.8336C28.6 3.67804 28.5556 3.55582 28.4667 3.46693C28.3778 3.37804 28.2556 3.3336 28.1 3.3336H26.0667V4.36693H26.8667L26.3667 4.86693H24.5333C24.3778 4.86693 24.2556 4.91137 24.1667 5.00026L22.1333 7.06693L22.8333 7.76693L24.7333 5.86693ZM28.6 6.40026H27.6V8.4336H26.5667V6.90026H25.5333V8.4336H24.5333V7.40026H23.5V8.4336H21.4667V3.3336H20.4333V8.9336C20.4333 9.06693 20.4778 9.18915 20.5667 9.30026C20.6556 9.41137 20.7778 9.46693 20.9333 9.46693H29.6333V8.4336H28.6V6.40026ZM7.66667 13.5336C7.82222 13.5336 7.94444 13.4892 8.03333 13.4003C8.12222 13.3114 8.16667 13.1891 8.16667 13.0336V11.5003H11.2333C11.8111 11.5003 12.3 11.3003 12.7 10.9003C12.8778 10.7225 13.0222 10.5058 13.1333 10.2503C13.2444 9.99471 13.3 9.73359 13.3 9.46693V3.3336C13.3 3.06693 13.2444 2.80582 13.1333 2.55026C13.0222 2.29471 12.8778 2.07804 12.7 1.90026C12.3 1.50026 11.8111 1.30026 11.2333 1.30026H2.06667C1.48889 1.30026 1 1.50026 0.6 1.90026C0.422222 2.07804 0.277778 2.29471 0.166667 2.55026C0.0555556 2.80582 0 3.06693 0 3.3336V9.46693C0 9.73359 0.0555556 9.99471 0.166667 10.2503C0.277778 10.5058 0.422222 10.7225 0.6 10.9003C1 11.3003 1.48889 11.5003 2.06667 11.5003H5.43333L7.3 13.4003C7.38889 13.4892 7.51111 13.5336 7.66667 13.5336ZM7.16667 11.0003V11.8003L6 10.6336C5.88889 10.5225 5.76667 10.4669 5.63333 10.4669H2.06667C1.77778 10.4669 1.53333 10.3725 1.33333 10.1836C1.13333 9.99471 1.03333 9.75582 1.03333 9.46693V3.3336C1.03333 3.04471 1.13333 2.80026 1.33333 2.60026C1.53333 2.40026 1.77778 2.30026 2.06667 2.30026H11.2333C11.5222 2.30026 11.7667 2.40026 11.9667 2.60026C12.1667 2.80026 12.2667 3.04471 12.2667 3.3336V9.46693C12.2667 9.75582 12.1667 9.99471 11.9667 10.1836C11.7667 10.3725 11.5222 10.4669 11.2333 10.4669H7.66667C7.53333 10.4669 7.41667 10.5169 7.31667 10.6169C7.21667 10.7169 7.16667 10.8447 7.16667 11.0003ZM8.16667 7.40026C8.16667 6.97804 8.01667 6.61693 7.71667 6.31693C7.41667 6.01693 7.06667 5.86693 6.66667 5.86693C6.53333 5.86693 6.43333 5.84471 6.36667 5.80026C6.3 5.75582 6.24444 5.68915 6.2 5.60026L6.16667 5.56693C6.14444 5.50026 6.14444 5.40582 6.16667 5.2836C6.18889 5.16137 6.22778 5.07248 6.28333 5.01693C6.33889 4.96137 6.43333 4.92248 6.56667 4.90026C6.7 4.87804 6.78889 4.87804 6.83333 4.90026C6.96667 4.94471 7.05556 5.00582 7.1 5.0836C7.14444 5.16137 7.16667 5.25582 7.16667 5.36693H8.16667C8.16667 5.0336 8.07778 4.74471 7.9 4.50026C7.67778 4.21137 7.43333 4.02248 7.16667 3.9336V3.3336H6.13333V3.9336C5.75556 4.08915 5.47778 4.31693 5.3 4.61693C5.12222 4.91693 5.06667 5.24471 5.13333 5.60026C5.2 5.95582 5.37778 6.26137 5.66667 6.51693C5.95556 6.77248 6.28889 6.90026 6.66667 6.90026C6.77778 6.90026 6.87222 6.92248 6.95 6.96693C7.02778 7.01137 7.08889 7.10026 7.13333 7.23359C7.15556 7.27804 7.16111 7.35582 7.15 7.46693C7.13889 7.57804 7.08889 7.67804 7 7.76693C6.91111 7.85582 6.82222 7.91137 6.73333 7.9336C6.64444 7.95582 6.55556 7.94471 6.46667 7.90026C6.33333 7.81137 6.25556 7.74471 6.23333 7.70026C6.16667 7.58915 6.13333 7.48915 6.13333 7.40026H5.13333C5.13333 7.71137 5.22222 8.00026 5.4 8.26693C5.57778 8.5336 5.82222 8.73359 6.13333 8.86693V9.46693H7.16667V8.86693C7.47778 8.73359 7.72222 8.5336 7.9 8.26693C8.07778 8.00026 8.16667 7.71137 8.16667 7.40026Z" fill="#F98D21"/>
</g>
<defs>
<clipPath id="clip0_717_19814">
<rect width="32.6667" height="34" fill="white" transform="matrix(1 0 0 -1 0 34)"/>
</clipPath>
</defs>
</svg>
